solid Mesh_1
 facet normal  2.575877e-001 -8.836469e-002 -9.622059e-001
   outer loop
     vertex  3.061617e-014 -7.498799e-030 -5.000000e+002
     vertex  2.498029e+002 -6.118407e-014 -4.331264e+002
     vertex  1.397924e+002 -1.767270e+002 -4.463470e+002
   endloop
 endfacet
 facet normal  9.530498e-001 -1.652595e-001 -2.537427e-001
   outer loop
     vertex  4.334671e+002 -1.061688e-013 -2.492114e+002
     vertex  4.999995e+002 -1.224646e-013  6.826102e-001
     vertex  4.326801e+002 -2.281735e+002 -1.035607e+002
   endloop
 endfacet
 facet normal  6.968197e-001 -1.660031e-001  6.977717e-001
   outer loop
     vertex  4.327850e+002 -1.060017e-013  2.503940e+002
     vertex  2.498029e+002 -6.118407e-014  4.331264e+002
     vertex  3.199648e+002 -2.288709e+002  3.086109e+002
   endloop
 endfacet
 facet normal  2.556813e-001  1.498002e-001 -9.550848e-001
   outer loop
     vertex  2.498029e+002 -6.118407e-014 -4.331264e+002
     vertex  3.061617e-014 -7.498799e-030 -5.000000e+002
     vertex  8.134432e+001  2.135333e+002 -4.447321e+002
   endloop
 endfacet
 facet normal  6.983863e-001  1.607581e-001 -6.974335e-001
   outer loop
     vertex  4.334671e+002 -1.061688e-013 -2.492114e+002
     vertex  2.498029e+002 -6.118407e-014 -4.331264e+002
     vertex  3.086773e+002  2.256954e+002 -3.221489e+002
   endloop
 endfacet
 facet normal  4.400482e-001  3.011801e-001 -8.459599e-001
   outer loop
     vertex  2.498029e+002 -6.118407e-014 -4.331264e+002
     vertex  8.134432e+001  2.135333e+002 -4.447321e+002
     vertex  3.086773e+002  2.256954e+002 -3.221489e+002
   endloop
 endfacet
 facet normal  9.561101e-001  1.451000e-001 -2.545574e-001
   outer loop
     vertex  4.999995e+002 -1.224646e-013  6.826102e-001
     vertex  4.334671e+002 -1.061688e-013 -2.492114e+002
     vertex  4.399874e+002  2.141919e+002 -1.026297e+002
   endloop
 endfacet
 facet normal  8.250522e-001  3.018018e-001 -4.777076e-001
   outer loop
     vertex  4.334671e+002 -1.061688e-013 -2.492114e+002
     vertex  3.086773e+002  2.256954e+002 -3.221489e+002
     vertex  4.399874e+002  2.141919e+002 -1.026297e+002
   endloop
 endfacet
 facet normal  9.610055e-001  9.775912e-002  2.586728e-001
   outer loop
     vertex  4.327850e+002 -1.060017e-013  2.503940e+002
     vertex  4.999995e+002 -1.224646e-013  6.826102e-001
     vertex  4.483145e+002  1.839614e+002  1.231760e+002
   endloop
 endfacet
 facet normal  9.628374e-001  2.700811e-001  6.514948e-004
   outer loop
     vertex  4.999995e+002 -1.224646e-013  6.826102e-001
     vertex  4.399874e+002  2.141919e+002 -1.026297e+002
     vertex  4.483145e+002  1.839614e+002  1.231760e+002
   endloop
 endfacet
 facet normal  6.955648e-001  1.762280e-001  6.965151e-001
   outer loop
     vertex  2.498029e+002 -6.118407e-014  4.331264e+002
     vertex  4.327850e+002 -1.060017e-013  2.503940e+002
     vertex  3.136921e+002  2.361299e+002  3.095803e+002
   endloop
 endfacet
 facet normal  8.134116e-001  2.828426e-001  5.082928e-001
   outer loop
     vertex  4.327850e+002 -1.060017e-013  2.503940e+002
     vertex  4.483145e+002  1.839614e+002  1.231760e+002
     vertex  3.136921e+002  2.361299e+002  3.095803e+002
   endloop
 endfacet
 facet normal  2.537732e-001  1.922919e-001  9.479573e-001
   outer loop
     vertex  3.061617e-014 -7.498799e-030  5.000000e+002
     vertex  2.498029e+002 -6.118407e-014  4.331264e+002
     vertex  7.909889e+001  2.436278e+002  4.294052e+002
   endloop
 endfacet
 facet normal  4.389953e-001  3.204145e-001  8.394151e-001
   outer loop
     vertex  2.498029e+002 -6.118407e-014  4.331264e+002
     vertex  3.136921e+002  2.361299e+002  3.095803e+002
     vertex  7.909889e+001  2.436278e+002  4.294052e+002
   endloop
 endfacet
 facet normal  7.006006e-001 -1.402002e-001 -6.996447e-001
   outer loop
     vertex  2.498029e+002 -6.118407e-014 -4.331264e+002
     vertex  4.334671e+002 -1.061688e-013 -2.492114e+002
     vertex  3.229833e+002 -2.120605e+002 -3.173518e+002
   endloop
 endfacet
 facet normal  9.602052e-001 -1.058568e-001  2.584574e-001
   outer loop
     vertex  4.999995e+002 -1.224646e-013  6.826102e-001
     vertex  4.327850e+002 -1.060017e-013  2.503940e+002
     vertex  4.467506e+002 -1.890986e+002  1.210604e+002
   endloop
 endfacet
 facet normal  5.208982e-001 -2.635145e-001 -8.119268e-001
   outer loop
     vertex  2.498029e+002 -6.118407e-014 -4.331264e+002
     vertex  3.229833e+002 -2.120605e+002 -3.173518e+002
     vertex  1.397924e+002 -1.767270e+002 -4.463470e+002
   endloop
 endfacet
 facet normal  2.542790e-001 -1.820272e-001  9.498465e-001
   outer loop
     vertex  2.498029e+002 -6.118407e-014  4.331264e+002
     vertex  3.061617e-014 -7.498799e-030  5.000000e+002
     vertex  9.327780e+001 -2.388151e+002  4.292629e+002
   endloop
 endfacet
 facet normal -6.275548e-002  2.965107e-001  9.529654e-001
   outer loop
     vertex  3.061617e-014 -7.498799e-030  5.000000e+002
     vertex  7.909889e+001  2.436278e+002  4.294052e+002
     vertex -1.704328e+002  1.921387e+002  4.289935e+002
   endloop
 endfacet
 facet normal  8.416285e-001 -2.926407e-001 -4.538975e-001
   outer loop
     vertex  3.229833e+002 -2.120605e+002 -3.173518e+002
     vertex  4.334671e+002 -1.061688e-013 -2.492114e+002
     vertex  4.326801e+002 -2.281735e+002 -1.035607e+002
   endloop
 endfacet
 facet normal  4.569004e-001 -3.129342e-001  8.326549e-001
   outer loop
     vertex  2.498029e+002 -6.118407e-014  4.331264e+002
     vertex  9.327780e+001 -2.388151e+002  4.292629e+002
     vertex  3.199648e+002 -2.288709e+002  3.086109e+002
   endloop
 endfacet
 facet normal  9.605111e-001 -2.779908e-001 -1.180853e-002
   outer loop
     vertex  4.326801e+002 -2.281735e+002 -1.035607e+002
     vertex  4.999995e+002 -1.224646e-013  6.826102e-001
     vertex  4.467506e+002 -1.890986e+002  1.210604e+002
   endloop
 endfacet
 facet normal  8.219936e-001 -2.788950e-001  4.965322e-001
   outer loop
     vertex  4.467506e+002 -1.890986e+002  1.210604e+002
     vertex  4.327850e+002 -1.060017e-013  2.503940e+002
     vertex  3.199648e+002 -2.288709e+002  3.086109e+002
   endloop
 endfacet
 facet normal -5.690072e-002 -3.039111e-001  9.509997e-001
   outer loop
     vertex  9.327780e+001 -2.388151e+002  4.292629e+002
     vertex  3.061617e-014 -7.498799e-030  5.000000e+002
     vertex -1.596642e+002 -2.175620e+002  4.209206e+002
   endloop
 endfacet
 facet normal  3.970649e-001 -5.973448e-001  6.967917e-001
   outer loop
     vertex  3.199648e+002 -2.288709e+002  3.086109e+002
     vertex  9.327780e+001 -2.388151e+002  4.292629e+002
     vertex  1.541441e+002 -4.013774e+002  2.552171e+002
   endloop
 endfacet
 facet normal  7.271413e-001 -5.790328e-001  3.687635e-001
   outer loop
     vertex  4.467506e+002 -1.890986e+002  1.210604e+002
     vertex  3.199648e+002 -2.288709e+002  3.086109e+002
     vertex  3.129735e+002 -3.808206e+002  8.380493e+001
   endloop
 endfacet
 facet normal  5.716562e-001 -6.879148e-001  4.471939e-001
   outer loop
     vertex  3.199648e+002 -2.288709e+002  3.086109e+002
     vertex  1.541441e+002 -4.013774e+002  2.552171e+002
     vertex  3.129735e+002 -3.808206e+002  8.380493e+001
   endloop
 endfacet
 facet normal  7.303676e-001  5.476749e-001 -4.081855e-001
   outer loop
     vertex  4.399874e+002  2.141919e+002 -1.026297e+002
     vertex  3.086773e+002  2.256954e+002 -3.221489e+002
     vertex  2.935611e+002  3.778853e+002 -1.449985e+002
   endloop
 endfacet
 facet normal  8.307288e-001  5.549623e-001  4.366276e-002
   outer loop
     vertex  4.483145e+002  1.839614e+002  1.231760e+002
     vertex  4.399874e+002  2.141919e+002 -1.026297e+002
     vertex  3.264405e+002  3.695748e+002  8.277138e+001
   endloop
 endfacet
 facet normal  7.534559e-001  6.519842e-001 -8.497534e-002
   outer loop
     vertex  4.399874e+002  2.141919e+002 -1.026297e+002
     vertex  2.935611e+002  3.778853e+002 -1.449985e+002
     vertex  3.264405e+002  3.695748e+002  8.277138e+001
   endloop
 endfacet
 facet normal  7.360118e-001  5.645802e-001  3.735449e-001
   outer loop
     vertex  3.136921e+002  2.361299e+002  3.095803e+002
     vertex  4.483145e+002  1.839614e+002  1.231760e+002
     vertex  3.264405e+002  3.695748e+002  8.277138e+001
   endloop
 endfacet
 facet normal  8.145440e-001 -5.779842e-001  4.952164e-002
   outer loop
     vertex  4.326801e+002 -2.281735e+002 -1.035607e+002
     vertex  4.467506e+002 -1.890986e+002  1.210604e+002
     vertex  3.129735e+002 -3.808206e+002  8.380493e+001
   endloop
 endfacet
 facet normal  4.836245e-001  6.838896e-001 -5.462621e-001
   outer loop
     vertex  2.935611e+002  3.778853e+002 -1.449985e+002
     vertex  3.086773e+002  2.256954e+002 -3.221489e+002
     vertex  1.122345e+002  4.018749e+002 -2.754996e+002
   endloop
 endfacet
 facet normal  3.582072e-001  5.908238e-001 -7.229211e-001
   outer loop
     vertex  3.086773e+002  2.256954e+002 -3.221489e+002
     vertex  8.134432e+001  2.135333e+002 -4.447321e+002
     vertex  1.122345e+002  4.018749e+002 -2.754996e+002
   endloop
 endfacet
 facet normal  5.321027e-001  7.163331e-001  4.513687e-001
   outer loop
     vertex  3.136921e+002  2.361299e+002  3.095803e+002
     vertex  3.264405e+002  3.695748e+002  8.277138e+001
     vertex  1.249731e+002  4.229856e+002  2.355099e+002
   endloop
 endfacet
 facet normal  6.877544e-001 -6.067123e-001 -3.986153e-001
   outer loop
     vertex  3.229833e+002 -2.120605e+002 -3.173518e+002
     vertex  4.326801e+002 -2.281735e+002 -1.035607e+002
     vertex  2.456843e+002 -4.077774e+002 -1.528294e+002
   endloop
 endfacet
 facet normal  7.039898e-001 -6.999211e-001 -1.204528e-001
   outer loop
     vertex  4.326801e+002 -2.281735e+002 -1.035607e+002
     vertex  3.129735e+002 -3.808206e+002  8.380493e+001
     vertex  2.456843e+002 -4.077774e+002 -1.528294e+002
   endloop
 endfacet
 facet normal  3.662419e-001  6.382942e-001  6.770874e-001
   outer loop
     vertex  7.909889e+001  2.436278e+002  4.294052e+002
     vertex  3.136921e+002  2.361299e+002  3.095803e+002
     vertex  1.249731e+002  4.229856e+002  2.355099e+002
   endloop
 endfacet
 facet normal  8.913041e-002 -7.121568e-001  6.963394e-001
   outer loop
     vertex  1.541441e+002 -4.013774e+002  2.552171e+002
     vertex  9.327780e+001 -2.388151e+002  4.292629e+002
     vertex -7.904539e+001 -4.073538e+002  2.789529e+002
   endloop
 endfacet
 facet normal -7.773625e-002 -6.181344e-001  7.822192e-001
   outer loop
     vertex  9.327780e+001 -2.388151e+002  4.292629e+002
     vertex -1.596642e+002 -2.175620e+002  4.209206e+002
     vertex -7.904539e+001 -4.073538e+002  2.789529e+002
   endloop
 endfacet
 facet normal  8.387448e-002  6.583632e-001 -7.480126e-001
   outer loop
     vertex  1.122345e+002  4.018749e+002 -2.754996e+002
     vertex  8.134432e+001  2.135333e+002 -4.447321e+002
     vertex -9.689193e+001  3.418738e+002 -3.517588e+002
   endloop
 endfacet
 facet normal -1.260035e-001  4.612552e-001 -8.782749e-001
   outer loop
     vertex -9.689193e+001  3.418738e+002 -3.517588e+002
     vertex  8.134432e+001  2.135333e+002 -4.447321e+002
     vertex -1.822247e+002  1.473289e+002 -4.416881e+002
   endloop
 endfacet
 facet normal -8.102242e-002  2.785600e-001 -9.569951e-001
   outer loop
     vertex  8.134432e+001  2.135333e+002 -4.447321e+002
     vertex  3.061617e-014 -7.498799e-030 -5.000000e+002
     vertex -1.822247e+002  1.473289e+002 -4.416881e+002
   endloop
 endfacet
 facet normal  3.435204e-001  8.848676e-001 -3.146475e-001
   outer loop
     vertex  2.935611e+002  3.778853e+002 -1.449985e+002
     vertex  1.122345e+002  4.018749e+002 -2.754996e+002
     vertex  1.244193e+002  4.830919e+002 -3.379388e+001
   endloop
 endfacet
 facet normal  5.324014e-001 -6.579623e-001 -5.325734e-001
   outer loop
     vertex  3.229833e+002 -2.120605e+002 -3.173518e+002
     vertex  2.456843e+002 -4.077774e+002 -1.528294e+002
     vertex  1.461782e+002 -3.392754e+002 -3.369334e+002
   endloop
 endfacet
 facet normal  3.833076e-001 -9.236130e-001 -3.781373e-003
   outer loop
     vertex  2.456843e+002 -4.077774e+002 -1.528294e+002
     vertex  3.129735e+002 -3.808206e+002  8.380493e+001
     vertex  2.944601e+001 -4.982644e+002  2.942035e+001
   endloop
 endfacet
 facet normal -3.142594e-001 -1.298677e-002 -9.492483e-001
   outer loop
     vertex -1.822247e+002  1.473289e+002 -4.416881e+002
     vertex  3.061617e-014 -7.498799e-030 -5.000000e+002
     vertex -2.494280e+002 -1.222126e+002 -4.157521e+002
   endloop
 endfacet
 facet normal  2.773350e-001 -8.417910e-001 -4.631125e-001
   outer loop
     vertex  1.461782e+002 -3.392754e+002 -3.369334e+002
     vertex  2.456843e+002 -4.077774e+002 -1.528294e+002
     vertex  7.436522e+000 -4.451003e+002 -2.276630e+002
   endloop
 endfacet
 facet normal  2.168339e-001 -9.521340e-001 -2.154622e-001
   outer loop
     vertex  2.456843e+002 -4.077774e+002 -1.528294e+002
     vertex  2.944601e+001 -4.982644e+002  2.942035e+001
     vertex  7.436522e+000 -4.451003e+002 -2.276630e+002
   endloop
 endfacet
 facet normal -3.653423e-001 -6.520968e-001  6.643002e-001
   outer loop
     vertex -7.904539e+001 -4.073538e+002  2.789529e+002
     vertex -1.596642e+002 -2.175620e+002  4.209206e+002
     vertex -2.981274e+002 -3.137946e+002  2.503058e+002
   endloop
 endfacet
 facet normal  5.077004e-001  8.605147e-001 -4.189103e-002
   outer loop
     vertex  3.264405e+002  3.695748e+002  8.277138e+001
     vertex  2.935611e+002  3.778853e+002 -1.449985e+002
     vertex  1.244193e+002  4.830919e+002 -3.379388e+001
   endloop
 endfacet
 facet normal  3.406016e-001 -9.174589e-001  2.055718e-001
   outer loop
     vertex  3.129735e+002 -3.808206e+002  8.380493e+001
     vertex  1.541441e+002 -4.013774e+002  2.552171e+002
     vertex  2.944601e+001 -4.982644e+002  2.942035e+001
   endloop
 endfacet
 facet normal  6.095894e-002 -9.290221e-001  3.649683e-001
   outer loop
     vertex  1.541441e+002 -4.013774e+002  2.552171e+002
     vertex -7.904539e+001 -4.073538e+002  2.789529e+002
     vertex  2.944601e+001 -4.982644e+002  2.942035e+001
   endloop
 endfacet
 facet normal -2.155286e-001 -1.899831e-001  9.578381e-001
   outer loop
     vertex -1.596642e+002 -2.175620e+002  4.209206e+002
     vertex  3.061617e-014 -7.498799e-030  5.000000e+002
     vertex -2.263043e+002 -1.810521e+001  4.454869e+002
   endloop
 endfacet
 facet normal  4.364821e-001 -4.905339e-001 -7.542280e-001
   outer loop
     vertex  3.229833e+002 -2.120605e+002 -3.173518e+002
     vertex  1.461782e+002 -3.392754e+002 -3.369334e+002
     vertex  1.397924e+002 -1.767270e+002 -4.463470e+002
   endloop
 endfacet
 facet normal -5.706018e-001 -4.249244e-001  7.027466e-001
   outer loop
     vertex -2.981274e+002 -3.137946e+002  2.503058e+002
     vertex -1.596642e+002 -2.175620e+002  4.209206e+002
     vertex -3.809783e+002 -1.174184e+002  3.017755e+002
   endloop
 endfacet
 facet normal -5.503480e-001 -2.807246e-001  7.863274e-001
   outer loop
     vertex -1.596642e+002 -2.175620e+002  4.209206e+002
     vertex -2.263043e+002 -1.810521e+001  4.454869e+002
     vertex -3.809783e+002 -1.174184e+002  3.017755e+002
   endloop
 endfacet
 facet normal -6.590518e-001 -5.858611e-002  7.498123e-001
   outer loop
     vertex -3.809783e+002 -1.174184e+002  3.017755e+002
     vertex -2.263043e+002 -1.810521e+001  4.454869e+002
     vertex -3.521533e+002  9.008928e+001  3.433249e+002
   endloop
 endfacet
 facet normal -8.133675e-001 -4.422264e-001  3.779802e-001
   outer loop
     vertex -2.981274e+002 -3.137946e+002  2.503058e+002
     vertex -3.809783e+002 -1.174184e+002  3.017755e+002
     vertex -4.508807e+002 -2.123229e+002  4.031833e+001
   endloop
 endfacet
 facet normal -4.028226e-001 -8.168193e-001  4.129651e-001
   outer loop
     vertex -7.904539e+001 -4.073538e+002  2.789529e+002
     vertex -2.981274e+002 -3.137946e+002  2.503058e+002
     vertex -2.415898e+002 -4.317867e+002  7.207387e+001
   endloop
 endfacet
 facet normal -1.908658e-001 -9.460890e-001  2.616982e-001
   outer loop
     vertex  2.944601e+001 -4.982644e+002  2.942035e+001
     vertex -7.904539e+001 -4.073538e+002  2.789529e+002
     vertex -2.415898e+002 -4.317867e+002  7.207387e+001
   endloop
 endfacet
 facet normal -7.227760e-001 -6.592938e-001  2.071874e-001
   outer loop
     vertex -2.981274e+002 -3.137946e+002  2.503058e+002
     vertex -4.508807e+002 -2.123229e+002  4.031833e+001
     vertex -2.415898e+002 -4.317867e+002  7.207387e+001
   endloop
 endfacet
 facet normal  1.310998e-001 -5.500284e-001 -8.247918e-001
   outer loop
     vertex  1.397924e+002 -1.767270e+002 -4.463470e+002
     vertex  1.461782e+002 -3.392754e+002 -3.369334e+002
     vertex -6.205476e+001 -2.806254e+002 -4.091437e+002
   endloop
 endfacet
 facet normal  2.766636e-002 -7.353929e-001 -6.770760e-001
   outer loop
     vertex -6.205476e+001 -2.806254e+002 -4.091437e+002
     vertex  1.461782e+002 -3.392754e+002 -3.369334e+002
     vertex  7.436522e+000 -4.451003e+002 -2.276630e+002
   endloop
 endfacet
 facet normal -1.898106e-002 -3.041649e-001 -9.524303e-001
   outer loop
     vertex  1.397924e+002 -1.767270e+002 -4.463470e+002
     vertex -6.205476e+001 -2.806254e+002 -4.091437e+002
     vertex  3.061617e-014 -7.498799e-030 -5.000000e+002
   endloop
 endfacet
 facet normal -1.899658e-001 -2.641407e-001 -9.455912e-001
   outer loop
     vertex  3.061617e-014 -7.498799e-030 -5.000000e+002
     vertex -6.205476e+001 -2.806254e+002 -4.091437e+002
     vertex -2.494280e+002 -1.222126e+002 -4.157521e+002
   endloop
 endfacet
 facet normal -2.500434e-001 -7.631467e-001 -5.958904e-001
   outer loop
     vertex -6.205476e+001 -2.806254e+002 -4.091437e+002
     vertex  7.436522e+000 -4.451003e+002 -2.276630e+002
     vertex -2.549504e+002 -3.809102e+002 -1.997692e+002
   endloop
 endfacet
 facet normal -4.537160e-001 -5.653972e-001 -6.888162e-001
   outer loop
     vertex -6.205476e+001 -2.806254e+002 -4.091437e+002
     vertex -2.549504e+002 -3.809102e+002 -1.997692e+002
     vertex -2.494280e+002 -1.222126e+002 -4.157521e+002
   endloop
 endfacet
 facet normal -6.121392e-001 -4.990407e-001 -6.133873e-001
   outer loop
     vertex -2.494280e+002 -1.222126e+002 -4.157521e+002
     vertex -2.549504e+002 -3.809102e+002 -1.997692e+002
     vertex -4.225477e+002 -1.443084e+002 -2.250078e+002
   endloop
 endfacet
 facet normal -7.221851e-001 -1.570099e-001 -6.736443e-001
   outer loop
     vertex -2.494280e+002 -1.222126e+002 -4.157521e+002
     vertex -4.225477e+002 -1.443084e+002 -2.250078e+002
     vertex -3.734182e+002  6.413372e+001 -3.262602e+002
   endloop
 endfacet
 facet normal -5.324681e-001  5.146018e-002 -8.448844e-001
   outer loop
     vertex -2.494280e+002 -1.222126e+002 -4.157521e+002
     vertex -3.734182e+002  6.413372e+001 -3.262602e+002
     vertex -1.822247e+002  1.473289e+002 -4.416881e+002
   endloop
 endfacet
 facet normal -9.006964e-001  1.256800e-003 -4.344473e-001
   outer loop
     vertex -3.734182e+002  6.413372e+001 -3.262602e+002
     vertex -4.225477e+002 -1.443084e+002 -2.250078e+002
     vertex -4.786195e+002  9.615371e+001 -1.080642e+002
   endloop
 endfacet
 facet normal -5.934174e-001  3.773216e-001 -7.109741e-001
   outer loop
     vertex -1.822247e+002  1.473289e+002 -4.416881e+002
     vertex -3.734182e+002  6.413372e+001 -3.262602e+002
     vertex -3.172092e+002  2.935310e+002 -2.514317e+002
   endloop
 endfacet
 facet normal -7.819513e-001 -5.786260e-001 -2.318279e-001
   outer loop
     vertex -4.225477e+002 -1.443084e+002 -2.250078e+002
     vertex -2.549504e+002 -3.809102e+002 -1.997692e+002
     vertex -4.508807e+002 -2.123229e+002  4.031833e+001
   endloop
 endfacet
 facet normal -4.450823e-001  5.291656e-001 -7.224164e-001
   outer loop
     vertex -1.822247e+002  1.473289e+002 -4.416881e+002
     vertex -3.172092e+002  2.935310e+002 -2.514317e+002
     vertex -9.689193e+001  3.418738e+002 -3.517588e+002
   endloop
 endfacet
 facet normal  3.898205e-001  8.989470e-001  1.998358e-001
   outer loop
     vertex  1.249731e+002  4.229856e+002  2.355099e+002
     vertex  3.264405e+002  3.695748e+002  8.277138e+001
     vertex  1.244193e+002  4.830919e+002 -3.379388e+001
   endloop
 endfacet
 facet normal -5.740350e-002  8.550582e-001 -5.153449e-001
   outer loop
     vertex  1.122345e+002  4.018749e+002 -2.754996e+002
     vertex -9.689193e+001  3.418738e+002 -3.517588e+002
     vertex -1.204447e+002  4.610605e+002 -1.513812e+002
   endloop
 endfacet
 facet normal -7.135274e-001 -6.941774e-001 -9.484943e-002
   outer loop
     vertex -4.508807e+002 -2.123229e+002  4.031833e+001
     vertex -2.549504e+002 -3.809102e+002 -1.997692e+002
     vertex -2.415898e+002 -4.317867e+002  7.207387e+001
   endloop
 endfacet
 facet normal -2.424405e-001  1.397426e-001  9.600493e-001
   outer loop
     vertex  3.061617e-014 -7.498799e-030  5.000000e+002
     vertex -1.704328e+002  1.921387e+002  4.289935e+002
     vertex -2.263043e+002 -1.810521e+001  4.454869e+002
   endloop
 endfacet
 facet normal -8.234917e-001  3.479479e-001 -4.481002e-001
   outer loop
     vertex -3.734182e+002  6.413372e+001 -3.262602e+002
     vertex -4.786195e+002  9.615371e+001 -1.080642e+002
     vertex -3.172092e+002  2.935310e+002 -2.514317e+002
   endloop
 endfacet
 facet normal -5.076689e-001  2.006406e-001  8.378637e-001
   outer loop
     vertex -3.521533e+002  9.008928e+001  3.433249e+002
     vertex -2.263043e+002 -1.810521e+001  4.454869e+002
     vertex -1.704328e+002  1.921387e+002  4.289935e+002
   endloop
 endfacet
 facet normal  3.644751e-002  7.292897e-001  6.832335e-001
   outer loop
     vertex  7.909889e+001  2.436278e+002  4.294052e+002
     vertex  1.249731e+002  4.229856e+002  2.355099e+002
     vertex -1.325673e+002  3.864245e+002  2.882743e+002
   endloop
 endfacet
 facet normal  6.910368e-002  9.445946e-001 -3.208829e-001
   outer loop
     vertex  1.122345e+002  4.018749e+002 -2.754996e+002
     vertex -1.204447e+002  4.610605e+002 -1.513812e+002
     vertex  1.244193e+002  4.830919e+002 -3.379388e+001
   endloop
 endfacet
 facet normal -1.246661e-001  5.978365e-001  7.918648e-001
   outer loop
     vertex  7.909889e+001  2.436278e+002  4.294052e+002
     vertex -1.325673e+002  3.864245e+002  2.882743e+002
     vertex -1.704328e+002  1.921387e+002  4.289935e+002
   endloop
 endfacet
 facet normal -5.644012e-001  3.978247e-001  7.233166e-001
   outer loop
     vertex -3.521533e+002  9.008928e+001  3.433249e+002
     vertex -1.704328e+002  1.921387e+002  4.289935e+002
     vertex -3.320923e+002  2.667994e+002  2.617878e+002
   endloop
 endfacet
 facet normal -3.974992e-001  7.673536e-001 -5.031529e-001
   outer loop
     vertex -1.204447e+002  4.610605e+002 -1.513812e+002
     vertex -9.689193e+001  3.418738e+002 -3.517588e+002
     vertex -3.172092e+002  2.935310e+002 -2.514317e+002
   endloop
 endfacet
 facet normal -4.084609e-002  9.034850e-001  4.266690e-001
   outer loop
     vertex -1.325673e+002  3.864245e+002  2.882743e+002
     vertex  1.249731e+002  4.229856e+002  2.355099e+002
     vertex -8.968666e+001  4.845684e+002  8.455653e+001
   endloop
 endfacet
 facet normal -9.768750e-001 -1.574324e-001 -1.446729e-001
   outer loop
     vertex -4.225477e+002 -1.443084e+002 -2.250078e+002
     vertex -4.508807e+002 -2.123229e+002  4.031833e+001
     vertex -4.786195e+002  9.615371e+001 -1.080642e+002
   endloop
 endfacet
 facet normal -9.354979e-001 -1.677164e-001  3.109902e-001
   outer loop
     vertex -4.508807e+002 -2.123229e+002  4.031833e+001
     vertex -3.809783e+002 -1.174184e+002  3.017755e+002
     vertex -4.694220e+002  8.929457e+001  1.472057e+002
   endloop
 endfacet
 facet normal -9.967321e-001 -7.330063e-002  3.394323e-002
   outer loop
     vertex -4.786195e+002  9.615371e+001 -1.080642e+002
     vertex -4.508807e+002 -2.123229e+002  4.031833e+001
     vertex -4.694220e+002  8.929457e+001  1.472057e+002
   endloop
 endfacet
 facet normal -8.581827e-001  1.647628e-002  5.130799e-001
   outer loop
     vertex -3.809783e+002 -1.174184e+002  3.017755e+002
     vertex -3.521533e+002  9.008928e+001  3.433249e+002
     vertex -4.694220e+002  8.929457e+001  1.472057e+002
   endloop
 endfacet
 facet normal  1.259911e-001  9.682641e-001  2.158493e-001
   outer loop
     vertex  1.249731e+002  4.229856e+002  2.355099e+002
     vertex  1.244193e+002  4.830919e+002 -3.379388e+001
     vertex -8.968666e+001  4.845684e+002  8.455653e+001
   endloop
 endfacet
 facet normal -8.247220e-001  5.288059e-001 -2.004940e-001
   outer loop
     vertex -3.172092e+002  2.935310e+002 -2.514317e+002
     vertex -4.786195e+002  9.615371e+001 -1.080642e+002
     vertex -3.403533e+002  3.648813e+002  3.195773e+001
   endloop
 endfacet
 facet normal -8.146666e-001  3.166618e-001  4.858433e-001
   outer loop
     vertex -3.521533e+002  9.008928e+001  3.433249e+002
     vertex -3.320923e+002  2.667994e+002  2.617878e+002
     vertex -4.694220e+002  8.929457e+001  1.472057e+002
   endloop
 endfacet
 facet normal -5.529834e-001  7.961671e-001 -2.456163e-001
   outer loop
     vertex -1.204447e+002  4.610605e+002 -1.513812e+002
     vertex -3.172092e+002  2.935310e+002 -2.514317e+002
     vertex -3.403533e+002  3.648813e+002  3.195773e+001
   endloop
 endfacet
 facet normal -2.593988e-001 -9.515136e-001 -1.653305e-001
   outer loop
     vertex -2.415898e+002 -4.317867e+002  7.207387e+001
     vertex -2.549504e+002 -3.809102e+002 -1.997692e+002
     vertex  2.944601e+001 -4.982644e+002  2.942035e+001
   endloop
 endfacet
 facet normal -4.469984e-002  9.946366e-001 -9.327408e-002
   outer loop
     vertex  1.244193e+002  4.830919e+002 -3.379388e+001
     vertex -1.204447e+002  4.610605e+002 -1.513812e+002
     vertex -8.968666e+001  4.845684e+002  8.455653e+001
   endloop
 endfacet
 facet normal -4.246657e-001  9.046820e-001 -3.477704e-002
   outer loop
     vertex -1.204447e+002  4.610605e+002 -1.513812e+002
     vertex -3.403533e+002  3.648813e+002  3.195773e+001
     vertex -8.968666e+001  4.845684e+002  8.455653e+001
   endloop
 endfacet
 facet normal -8.975043e-001  4.387924e-001  4.412801e-002
   outer loop
     vertex -3.403533e+002  3.648813e+002  3.195773e+001
     vertex -4.786195e+002  9.615371e+001 -1.080642e+002
     vertex -4.694220e+002  8.929457e+001  1.472057e+002
   endloop
 endfacet
 facet normal -4.616895e-001  8.332347e-001  3.042414e-001
   outer loop
     vertex -1.325673e+002  3.864245e+002  2.882743e+002
     vertex -8.968666e+001  4.845684e+002  8.455653e+001
     vertex -3.403533e+002  3.648813e+002  3.195773e+001
   endloop
 endfacet
 facet normal -5.152325e-001  7.814287e-001  3.520009e-001
   outer loop
     vertex -3.320923e+002  2.667994e+002  2.617878e+002
     vertex -1.325673e+002  3.864245e+002  2.882743e+002
     vertex -3.403533e+002  3.648813e+002  3.195773e+001
   endloop
 endfacet
 facet normal -8.366571e-001  4.922714e-001  2.401538e-001
   outer loop
     vertex -4.694220e+002  8.929457e+001  1.472057e+002
     vertex -3.320923e+002  2.667994e+002  2.617878e+002
     vertex -3.403533e+002  3.648813e+002  3.195773e+001
   endloop
 endfacet
 facet normal -4.395207e-001  5.815066e-001  6.845960e-001
   outer loop
     vertex -1.704328e+002  1.921387e+002  4.289935e+002
     vertex -1.325673e+002  3.864245e+002  2.882743e+002
     vertex -3.320923e+002  2.667994e+002  2.617878e+002
   endloop
 endfacet
 facet normal -2.514962e-001 -9.518490e-001 -1.753085e-001
   outer loop
     vertex  2.944601e+001 -4.982644e+002  2.942035e+001
     vertex -2.549504e+002 -3.809102e+002 -1.997692e+002
     vertex  7.436522e+000 -4.451003e+002 -2.276630e+002
   endloop
 endfacet
endsolid Mesh_1
